# xmcd
#
# Track frame offsets: 
#        150
#        26653
#        45989
#        67423
#        93708
#        116276
#        145183
#        162001
#        179453
#        193654
#        217297
#        239141
#        256617
#
# Disc length: 3543 seconds
#
# Revision: 0
# Processed by: cddbd v1.5.2PL0 Copyright (c) Steve Scherf et al.
# Submitted via: ExactAudioCopy v1.0b3
#
DISCID=c10dd50d
DTITLE=Thanh Thuy - Vung Troi Ngay Do
DYEAR=1900
DGENRE=
TTITLE0=Vung troi ngay do
TTITLE1=Sac hoa mau nho
TTITLE2=La thu nguoi chien si
TTITLE3=Tuong nhu con nguoi yeu
TTITLE4=Chung minh ba dua
TTITLE5=Tinh chang y thiep
TTITLE6=La rung ven song
TTITLE7=Mua dong binh si
TTITLE8=Tinh anh linh chien
TTITLE9=Do chieu
TTITLE10=Chuyen thoi chinh chien
TTITLE11=Trang the
TTITLE12=Loi tam su
EXTD=
EXTT0=
EXTT1=
EXTT2=
EXTT3=
EXTT4=
EXTT5=
EXTT6=
EXTT7=
EXTT8=
EXTT9=
EXTT10=
EXTT11=
EXTT12=
PLAYORDER=
